<svg width="412" height="285" viewBox="0 0 412 285" fill="none" xmlns="http://www.w3.org/2000/svg">
<path d="M225.659 72.4443C204.237 84.441 154.537 82.7272 132.257 74.1581C132.257 74.1581 129.686 83.5841 131.4 87.0117C133.114 90.4393 146.824 94.7238 146.824 94.7238C154.331 110.728 154.135 119.975 150.252 136.712C137.668 150.479 130.758 158.173 119.404 171.845C111.077 190.58 109.857 201.239 113.405 220.689C120.288 237.512 125.34 245.235 133.114 257.535C175.911 265.555 194.453 262.746 227.373 257.535L245.368 220.689C248.36 192.987 245.588 184.652 239.37 171.845C227.468 156.867 220.542 149.116 207.665 136.712C203.571 120.081 205.027 111.075 212.806 95.5807C216.22 91.1887 219.468 89.8738 225.659 87.8686V72.4443Z" fill="#38B2CE"/>
<path d="M133.971 87.8687C132.293 83.1726 132.195 80.5682 133.971 75.8721L143.397 77.5859V89.5825V91.2963L156.25 96.4377C161.392 102.436 163.106 122.145 161.392 133.285C160.318 140.262 155.831 146.032 151.109 151.28C143.397 159.849 141.683 157.278 133.971 168.418C126.259 179.557 121.117 194.125 122.831 207.835C124.545 221.546 133.114 241.254 133.114 241.254L121.974 239.541C116.067 227.864 113.73 221.182 110.835 206.121C113.895 182.657 117.222 175.825 124.545 163.276C136.115 153.12 142.23 145.849 152.823 131.571C152.16 116.269 151.329 107.842 146.825 93.867L133.971 87.8687Z" fill="#ADE2FF" fill-opacity="0.57"/>
<path d="M224.803 69.8741C213.663 60.4464 147.681 56.1639 133.114 72.4448C145.417 79.0492 156.016 81.0071 182.815 81.0138C213.908 79.9109 220.465 76.892 224.803 69.8741Z" fill="#5B5B5B"/>
<path d="M236.799 239.547C206.357 245.997 180.761 246.034 123.688 241.261L132.257 258.399C167.333 264.71 188.92 263.206 228.23 258.399L236.799 239.547Z" fill="#015367"/>
<path d="M226.517 258.397C191.038 262.973 171.14 265.494 133.114 258.397V271.251C171.596 282.295 191.921 281.614 226.517 271.251V258.397Z" fill="#5B5B5B"/>
<path d="M235.085 168.423C191.248 183.851 166.669 182.528 122.831 168.423C114.365 180.778 112.161 188.738 112.548 205.27C163.724 214.269 192.65 216.268 245.368 205.27C247.884 190.099 245.726 181.888 235.085 168.423Z" fill="#04819E"/>
<path d="M223.946 68.1604C188.692 73.9806 164.82 70.7361 143.397 65.5947C115.119 78.4483 160.564 80.8404 181.101 81.8709C215.781 79.0286 223.946 75.0156 223.946 68.1604Z" fill="#677673"/>
<path d="M227.373 257.541V271.252C199.095 282.391 164.819 282.391 132.257 271.252V257.541M227.373 257.541C190.887 264.446 170.158 265.47 132.257 257.541M227.373 257.541C257.464 204.282 252.393 179.093 211.949 141.003C207.664 136.967 205.951 133.295 205.094 121.294C204.237 109.292 214.52 93.0109 214.52 93.0109M132.257 257.541C101.492 206.336 104.351 180.68 148.538 141.003C152.361 137.57 153.388 129.243 153.68 121.294C154.13 109.025 147.681 94.7248 147.681 94.7248M147.681 94.7248C147.681 94.7248 135.299 91.3022 132.257 87.8745C128.259 83.369 132.257 72.4503 132.257 72.4503M147.681 94.7248C157.658 96.7295 177.673 99.0093 187.099 98.1524M132.257 72.4503C132.257 72.4503 140.826 61.3154 179.387 61.3105C217.947 61.3057 224.803 69.8796 224.803 69.8796M132.257 72.4503C144.254 84.4419 224.803 84.4419 224.803 69.8796M224.803 69.8796C224.803 69.8796 228.397 84.1213 223.089 88.7264C219.956 91.4442 214.52 93.0109 214.52 93.0109M199.095 96.4386C202.523 96.4386 210.235 94.7298 214.52 93.0109" stroke="black" stroke-width="2.34053" stroke-linecap="round"/>
<path d="M125.402 170.138C147.681 183.848 217.947 182.099 234.228 170.103M113.405 204.374C117.591 204.374 148.519 213.8 180.243 213.8C213.467 213.8 243.196 205.236 244.511 205.236M124.545 239.512C156.331 245.165 172.108 246.175 205.951 242.934M219.661 241.22C227.046 240.75 229.727 240.322 234.228 239.512" stroke="black" stroke-width="3.90088" stroke-linecap="round"/>
<path d="M167.498 186.405C169.1 186.494 169.838 187.175 171.033 188.861L170.979 188.886C166.833 190.754 164.492 191.808 161.388 194.133C164.811 193.265 165.662 194.179 167.498 195.391C167.422 195.514 167.347 195.635 167.272 195.754C170.111 195.319 173.07 195.391 173.07 195.391C173.07 195.391 172.171 196.17 169.535 196.35C168.899 196.567 167.799 196.642 166.541 196.907C162.773 202.769 160.998 204.222 159.89 203.779C159.051 202.76 160.738 198.822 163.065 197.129C163.54 196.784 164.168 196.506 164.879 196.284C163.599 194.503 158.313 199.977 155.876 197.668C154.738 196.59 155.749 194.772 157.494 192.336C160.8 188.785 163.041 187.588 167.498 186.405Z" fill="white"/>
<path d="M174.445 182.988C173.794 183.542 173.905 184.127 173.366 185.564C171.53 185.739 170.945 185.904 170.071 186.223L173.127 186.583C173.127 186.583 170.787 195.389 170.85 196.288C171.097 199.831 171.629 205.034 173.905 204.855C175.822 204.495 176.302 203.279 177.74 200.302L176.302 197.486C175.83 199.084 175.515 199.716 174.864 201.08C173.606 199.942 174.353 195 177.74 186.583C181.202 186.485 182.967 186.655 185.887 187.242C186.044 186.813 186.058 186.581 185.647 186.223C182.93 185.666 181.183 185.536 177.74 185.564C177.897 184.206 177.108 183.659 174.445 182.988Z" fill="white"/>
<path d="M185.048 191.495C184.056 193.902 182.352 194.79 181.274 195.509C179.98 196.372 180.075 198.497 181.753 199.463C184.689 198.205 184.638 196.396 186.486 194.431L186.067 197.127C186.024 197.891 185.394 198.742 184.209 200.302C181.234 203.061 179.809 202.689 177.44 200.661C176.718 199.591 176.481 198.972 176.242 197.846C176.062 195.988 177.383 191.695 179.537 189.578C182.651 189.439 183.821 189.893 185.048 191.495Z" fill="white"/>
<path d="M190.8 188.559C189.821 187.676 187.633 186.627 187.145 187.001C186.199 190.57 186.089 193.129 186.007 197.844C187.145 201.678 188.223 202.757 190.021 203.356C192.619 201.755 193.692 200.502 193.795 196.586C196.562 199.986 197.815 201.609 202.062 206.411C202.61 205.091 203.38 203.955 203.38 203.356C198.288 198.803 198.647 194.789 195.832 194.789C198.573 188.622 199.962 186.324 202.062 185.264C202.15 184.501 202.158 184.101 201.164 184.065L190.8 198.324C189.062 197.365 191.778 189.441 190.8 188.559Z" fill="white"/>
<path d="M148.179 16.2725C120.72 31.6493 57.0159 29.4526 28.459 18.4692C28.459 18.4692 25.1639 30.551 27.3606 34.9443C29.5573 39.3377 47.1308 44.8294 47.1308 44.8294C56.7526 65.3425 56.5009 77.1949 51.5242 98.6484C35.395 116.295 26.5371 126.157 11.9838 143.681C1.3107 167.695 -0.252666 181.356 4.29536 206.286C13.1173 227.849 19.5924 237.749 29.5572 253.515C84.4131 263.794 108.179 260.194 150.375 253.515L173.441 206.286C177.276 170.779 173.722 160.096 165.752 143.681C150.497 124.482 141.62 114.548 125.113 98.6484C119.866 77.3314 121.733 65.7874 131.703 45.9278C136.079 40.2982 140.243 38.6129 148.179 36.0427V16.2725Z" fill="#38B2CE"/>
<path d="M30.6553 36.0419C28.504 30.0226 28.3794 26.6843 30.6553 20.665L42.7371 22.8617V38.2386V40.4353L59.2123 47.0253C65.8024 54.7137 67.9991 79.9757 65.8024 94.2542C64.4265 103.197 58.6752 110.594 52.6222 117.319C42.7371 128.303 40.5404 125.008 30.6553 139.286C20.7702 153.565 14.1801 172.237 16.3768 189.81C18.5735 207.384 29.557 232.646 29.557 232.646L15.2785 230.449C7.70664 215.483 4.71162 206.918 1 187.614C4.92211 157.537 9.18767 148.781 18.5735 132.696C33.403 119.679 41.2411 110.358 54.8189 92.0575C53.9694 72.4445 52.9038 61.6431 47.1305 43.7303L30.6553 36.0419Z" fill="#ADE2FF" fill-opacity="0.57"/>
<path d="M147.08 12.9765C132.801 0.892392 48.2289 -4.59671 29.557 16.2716C45.3259 24.7368 58.912 27.2464 93.261 27.255C133.116 25.8412 141.52 21.9718 147.08 12.9765Z" fill="#5B5B5B"/>
<path d="M162.457 230.456C123.437 238.724 90.6288 238.77 17.4752 232.653L28.4587 254.62C73.417 262.71 101.087 260.781 151.473 254.62L162.457 230.456Z" fill="#015367"/>
<path d="M149.277 254.619C103.801 260.483 78.2968 263.715 29.557 254.619V271.094C78.8815 285.25 104.933 284.377 149.277 271.094V254.619Z" fill="#5B5B5B"/>
<path d="M160.26 139.293C104.07 159.068 72.5663 157.373 16.3767 139.293C5.52479 155.129 2.69955 165.332 3.19651 186.522C68.7912 198.057 105.868 200.618 173.44 186.522C176.664 167.077 173.899 156.552 160.26 139.293Z" fill="#04819E"/>
<path d="M145.982 10.7808C100.795 18.2409 70.1964 14.0823 42.7378 7.49219C6.4919 23.9674 64.7415 27.0335 91.0648 28.3543C135.516 24.7112 145.982 19.5675 145.982 10.7808Z" fill="#677673"/>
<path d="M150.375 253.521V271.095C114.129 285.373 70.1955 285.373 28.4585 271.095V253.521M150.375 253.521C103.608 262.371 77.0384 263.683 28.4585 253.521M150.375 253.521C188.944 185.256 182.444 152.969 130.605 104.146C125.113 98.9739 122.916 94.2675 121.818 78.8842C120.719 63.5009 133.899 42.6323 133.899 42.6323M28.4585 253.521C-10.9749 187.888 -7.31015 155.003 49.327 104.146C54.2269 99.7463 55.5434 89.0729 55.9171 78.8842C56.494 63.1582 48.2285 44.829 48.2285 44.829M48.2285 44.829C48.2285 44.829 32.3568 40.4421 28.4585 36.0487C23.3341 30.2737 28.4585 16.2785 28.4585 16.2785M48.2285 44.829C61.016 47.3986 86.6706 50.3208 98.7524 49.2224M28.4585 16.2785C28.4585 16.2785 39.4421 2.00621 88.8675 2C138.293 1.9938 147.08 12.9835 147.08 12.9835M28.4585 16.2785C43.8353 31.6489 147.08 31.6489 147.08 12.9835M147.08 12.9835C147.08 12.9835 151.687 31.2379 144.883 37.1406C140.868 40.6241 133.899 42.6323 133.899 42.6323M114.129 47.0257C118.523 47.0257 128.408 44.8355 133.899 42.6323" stroke="black" stroke-width="3" stroke-linecap="round"/>
<path d="M19.6719 141.489C48.2289 159.063 138.293 156.821 159.162 141.444M4.29504 185.372C9.65995 185.372 49.3033 197.454 89.966 197.454C132.551 197.454 170.656 186.476 172.342 186.476M18.5735 230.41C59.3163 237.656 79.5378 238.951 122.916 234.797M140.49 232.601C149.956 231.998 153.393 231.449 159.162 230.41" stroke="black" stroke-width="5" stroke-linecap="round"/>
<path d="M73.6291 162.344C75.6826 162.458 76.6286 163.33 78.1595 165.492L78.0904 165.523C72.7761 167.917 69.7752 169.269 65.7967 172.249C70.1852 171.136 71.2757 172.308 73.6291 173.862C73.5314 174.019 73.4347 174.174 73.3389 174.327C76.9773 173.769 80.7703 173.862 80.7703 173.862C80.7703 173.862 79.6182 174.86 76.2395 175.091C75.424 175.369 74.0143 175.465 72.4017 175.805C67.5719 183.318 65.2972 185.18 63.8767 184.612C62.8017 183.307 64.9638 178.258 67.9468 176.089C68.5551 175.646 69.3601 175.291 70.2713 175.006C68.6306 172.724 61.8556 179.74 58.7323 176.78C57.2738 175.398 58.5697 173.068 60.8055 169.946C65.0433 165.394 67.9165 163.86 73.6291 162.344Z" fill="white"/>
<path d="M82.5329 157.965C81.6994 158.675 81.8418 159.424 81.1507 161.267C78.7965 161.49 78.0473 161.701 76.9274 162.111L80.8435 162.572C80.8435 162.572 77.8453 173.86 77.9256 175.012C78.2421 179.553 78.9238 186.223 81.8418 185.992C84.299 185.532 84.9131 183.973 86.7562 180.156L84.9133 176.547C84.3091 178.596 83.9049 179.406 83.0704 181.155C81.4578 179.696 82.416 173.361 86.7562 162.572C91.1937 162.447 93.4563 162.665 97.1993 163.417C97.4006 162.867 97.4183 162.57 96.8922 162.111C93.4095 161.398 91.1705 161.23 86.7562 161.267C86.9585 159.526 85.9465 158.824 82.5329 157.965Z" fill="white"/>
<path d="M96.1239 168.868C94.8523 171.953 92.6685 173.092 91.2863 174.013C89.6275 175.119 89.7499 177.842 91.9006 179.081C95.6632 177.469 95.5978 175.15 97.9668 172.631L97.4293 176.086C97.3746 177.066 96.568 178.156 95.0489 180.156C91.2356 183.693 89.4088 183.216 86.3719 180.617C85.4463 179.245 85.1432 178.451 84.8362 177.008C84.6059 174.627 86.2997 169.124 89.0595 166.411C93.0516 166.233 94.5516 166.814 96.1239 168.868Z" fill="white"/>
<path d="M103.496 165.106C102.242 163.975 99.4372 162.63 98.812 163.109C97.5992 167.683 97.4585 170.964 97.353 177.008C98.812 181.922 100.194 183.304 102.498 184.072C105.828 182.02 107.203 180.414 107.335 175.395C110.882 179.753 112.488 181.834 117.932 187.988C118.634 186.296 119.621 184.84 119.621 184.072C113.094 178.236 113.555 173.092 109.946 173.092C113.459 165.187 115.239 162.241 117.932 160.882C118.044 159.905 118.054 159.392 116.78 159.347L103.496 177.622C101.269 176.394 104.751 166.236 103.496 165.106Z" fill="white"/>
<path d="M268.337 120.503C251.657 129.844 212.959 128.509 195.612 121.837C195.612 121.837 193.611 129.177 194.945 131.845C196.279 134.514 206.955 137.85 206.955 137.85C212.799 150.311 212.646 157.511 209.623 170.543C199.826 181.262 194.445 187.253 185.604 197.898C179.121 212.486 178.171 220.784 180.934 235.928C186.293 249.027 190.226 255.041 196.279 264.618C229.602 270.862 244.039 268.675 269.671 264.618L283.682 235.928C286.012 214.359 283.853 207.87 279.012 197.898C269.745 186.236 264.353 180.201 254.326 170.543C251.138 157.594 252.272 150.581 258.329 138.517C260.987 135.098 263.516 134.074 268.337 132.513V120.503Z" fill="#38B2CE"/>
<path d="M196.946 132.513C195.64 128.856 195.564 126.828 196.946 123.172L204.286 124.506V133.847V135.181L214.294 139.185C218.297 143.855 219.631 159.201 218.297 167.874C217.461 173.307 213.967 177.8 210.29 181.885C204.286 188.557 202.951 186.556 196.946 195.229C190.942 203.903 186.938 215.245 188.273 225.92C189.607 236.596 196.279 251.941 196.279 251.941L187.606 250.607C183.006 241.516 181.187 236.313 178.932 224.586C181.315 206.316 183.906 200.997 189.607 191.226C198.615 183.318 203.377 177.657 211.625 166.54C211.109 154.626 210.461 148.064 206.954 137.183L196.946 132.513Z" fill="#ADE2FF" fill-opacity="0.57"/>
<path d="M267.669 118.502C258.996 111.162 207.622 107.827 196.279 120.504C205.858 125.646 214.111 127.171 234.977 127.176C259.187 126.317 264.292 123.967 267.669 118.502Z" fill="#5B5B5B"/>
<path d="M277.01 250.611C253.307 255.634 233.378 255.662 188.94 251.946L195.612 265.29C222.922 270.204 239.731 269.033 270.338 265.29L277.01 250.611Z" fill="#015367"/>
<path d="M269.004 265.289C241.38 268.851 225.887 270.815 196.279 265.289V275.297C226.242 283.896 242.067 283.366 269.004 275.297V265.289Z" fill="#5B5B5B"/>
<path d="M275.676 195.233C241.543 207.246 222.406 206.216 188.273 195.233C181.681 204.853 179.965 211.051 180.266 223.923C220.112 230.93 242.635 232.486 283.682 223.923C285.641 212.111 283.961 205.718 275.676 195.233Z" fill="#04819E"/>
<path d="M267.003 117.168C239.553 121.699 220.966 119.173 204.286 115.17C182.268 125.178 217.652 127.04 233.643 127.843C260.645 125.63 267.003 122.505 267.003 117.168Z" fill="#677673"/>
<path d="M269.671 264.623V275.298C247.653 283.971 220.966 283.971 195.612 275.298V264.623M269.671 264.623C241.262 269.999 225.122 270.796 195.612 264.623M269.671 264.623C293.1 223.154 289.152 203.541 257.662 173.883C254.325 170.742 252.991 167.883 252.324 158.538C251.657 149.193 259.663 136.516 259.663 136.516M195.612 264.623C171.658 224.753 173.884 204.777 208.289 173.883C211.265 171.211 212.065 164.727 212.292 158.538C212.642 148.985 207.622 137.851 207.622 137.851M207.622 137.851C207.622 137.851 197.98 135.186 195.612 132.517C192.499 129.009 195.612 120.508 195.612 120.508M207.622 137.851C215.389 139.412 230.974 141.187 238.313 140.52M195.612 120.508C195.612 120.508 202.284 111.838 232.308 111.834C262.332 111.83 267.669 118.506 267.669 118.506M195.612 120.508C204.953 129.844 267.669 129.844 267.669 118.506M267.669 118.506C267.669 118.506 270.468 129.595 266.335 133.18C263.896 135.297 259.663 136.516 259.663 136.516M247.653 139.185C250.322 139.185 256.327 137.855 259.663 136.516" stroke="black" stroke-width="1.82237" stroke-linecap="round"/>
<path d="M190.274 196.569C207.621 207.245 262.332 205.883 275.008 196.542M180.933 223.226C184.192 223.226 208.274 230.565 232.975 230.565C258.844 230.565 281.991 223.897 283.015 223.897M189.607 250.585C214.357 254.987 226.64 255.773 252.991 253.25M263.666 251.916C269.416 251.55 271.504 251.216 275.008 250.585" stroke="black" stroke-width="3.03729" stroke-linecap="round"/>
<path d="M223.051 209.235C224.298 209.305 224.873 209.835 225.803 211.148L225.761 211.167C222.533 212.621 220.71 213.442 218.293 215.253C220.959 214.576 221.621 215.288 223.051 216.232C222.992 216.328 222.933 216.422 222.875 216.515C225.085 216.176 227.389 216.232 227.389 216.232C227.389 216.232 226.689 216.839 224.637 216.978C224.141 217.148 223.285 217.206 222.306 217.412C219.372 221.976 217.99 223.108 217.127 222.762C216.474 221.97 217.787 218.903 219.599 217.585C219.969 217.316 220.458 217.1 221.011 216.927C220.015 215.541 215.899 219.803 214.002 218.005C213.116 217.165 213.903 215.75 215.261 213.853C217.836 211.088 219.581 210.156 223.051 209.235Z" fill="white"/>
<path d="M228.46 206.575C227.953 207.006 228.04 207.461 227.62 208.581C226.19 208.717 225.735 208.845 225.054 209.094L227.433 209.374C227.433 209.374 225.612 216.231 225.661 216.93C225.853 219.689 226.267 223.741 228.04 223.601C229.532 223.321 229.905 222.374 231.025 220.056L229.906 217.863C229.539 219.107 229.293 219.6 228.786 220.662C227.807 219.776 228.389 215.928 231.025 209.374C233.721 209.298 235.095 209.43 237.369 209.887C237.491 209.553 237.502 209.373 237.182 209.094C235.067 208.66 233.707 208.559 231.025 208.581C231.148 207.524 230.533 207.097 228.46 206.575Z" fill="white"/>
<path d="M236.716 213.199C235.943 215.072 234.617 215.764 233.777 216.324C232.77 216.996 232.844 218.65 234.15 219.402C236.436 218.423 236.396 217.014 237.835 215.484L237.509 217.583C237.476 218.178 236.986 218.841 236.063 220.055C233.746 222.204 232.637 221.914 230.792 220.335C230.23 219.502 230.045 219.02 229.859 218.143C229.719 216.697 230.748 213.354 232.424 211.706C234.85 211.598 235.761 211.951 236.716 213.199Z" fill="white"/>
<path d="M241.194 210.912C240.432 210.226 238.728 209.409 238.349 209.7C237.612 212.478 237.526 214.471 237.462 218.142C238.349 221.128 239.188 221.967 240.588 222.434C242.61 221.187 243.446 220.212 243.526 217.163C245.681 219.81 246.656 221.074 249.963 224.813C250.39 223.785 250.989 222.9 250.989 222.434C247.024 218.889 247.304 215.764 245.112 215.764C247.246 210.962 248.328 209.172 249.963 208.347C250.031 207.753 250.038 207.442 249.264 207.414L241.194 218.516C239.841 217.769 241.956 211.599 241.194 210.912Z" fill="white"/>
<path d="M268.424 120.806C251.548 130.256 212.397 128.906 194.846 122.156C194.846 122.156 192.821 129.581 194.171 132.281C195.521 134.981 206.321 138.356 206.321 138.356C212.235 150.964 212.08 158.248 209.021 171.433C199.109 182.278 193.665 188.339 184.72 199.109C178.161 213.868 177.2 222.264 179.995 237.586C185.417 250.838 189.396 256.923 195.521 266.612C229.235 272.93 243.841 270.717 269.774 266.612L283.95 237.586C286.307 215.763 284.123 209.198 279.225 199.109C269.849 187.31 264.393 181.204 254.248 171.433C251.024 158.332 252.171 151.237 258.299 139.031C260.988 135.572 263.547 134.536 268.424 132.956V120.806Z" fill="#38B2CE"/>
<path d="M196.196 132.957C194.874 129.258 194.797 127.206 196.196 123.507L203.621 124.857V134.307V135.657L213.747 139.708C217.797 144.433 219.147 159.958 217.797 168.734C216.951 174.23 213.417 178.776 209.697 182.909C203.621 189.66 202.271 187.635 196.196 196.41C190.121 205.185 186.071 216.661 187.421 227.461C188.771 238.262 195.521 253.788 195.521 253.788L186.746 252.438C182.092 243.24 180.251 237.976 177.97 226.111C180.381 207.627 183.002 202.245 188.771 192.36C197.885 184.359 202.702 178.631 211.047 167.384C210.525 155.33 209.87 148.691 206.321 137.682L196.196 132.957Z" fill="#ADE2FF" fill-opacity="0.57"/>
<path d="M267.749 118.781C258.974 111.354 206.996 107.981 195.521 120.806C205.212 126.009 213.562 127.551 234.672 127.556C259.167 126.688 264.332 124.309 267.749 118.781Z" fill="#5B5B5B"/>
<path d="M277.2 252.442C253.218 257.524 233.055 257.552 188.096 253.792L194.846 267.293C222.477 272.265 239.483 271.08 270.449 267.293L277.2 252.442Z" fill="#015367"/>
<path d="M269.099 267.291C241.15 270.895 225.476 272.881 195.521 267.291V277.416C225.835 286.116 241.846 285.58 269.099 277.416V267.291Z" fill="#5B5B5B"/>
<path d="M275.849 196.413C241.316 208.567 221.954 207.525 187.42 196.413C180.751 206.146 179.015 212.417 179.32 225.439C219.634 232.529 242.421 234.103 283.95 225.439C285.931 213.489 284.232 207.02 275.849 196.413Z" fill="#04819E"/>
<path d="M267.074 117.431C239.303 122.016 220.497 119.46 203.622 115.41C181.345 125.536 217.145 127.42 233.323 128.232C260.642 125.993 267.074 122.832 267.074 117.431Z" fill="#677673"/>
<path d="M269.774 266.618V277.419C247.498 286.194 220.497 286.194 194.846 277.419V266.618M269.774 266.618C241.032 272.057 224.703 272.864 194.846 266.618M269.774 266.618C293.479 224.663 289.484 204.82 257.624 174.814C254.249 171.635 252.899 168.743 252.224 159.288C251.549 149.834 259.649 137.008 259.649 137.008M194.846 266.618C170.611 226.281 172.863 206.07 207.672 174.814C210.683 172.11 211.492 165.55 211.722 159.288C212.076 149.623 206.997 138.358 206.997 138.358M206.997 138.358C206.997 138.358 197.242 135.662 194.846 132.962C191.697 129.413 194.846 120.812 194.846 120.812M206.997 138.358C214.856 139.938 230.623 141.734 238.048 141.058M194.846 120.812C194.846 120.812 201.597 112.04 231.973 112.036C262.349 112.032 267.749 118.786 267.749 118.786M194.846 120.812C204.297 130.258 267.749 130.258 267.749 118.786M267.749 118.786C267.749 118.786 270.581 130.005 266.399 133.633C263.931 135.774 259.649 137.008 259.649 137.008M247.498 139.708C250.198 139.708 256.274 138.362 259.649 137.008" stroke="black" stroke-width="1.84376" stroke-linecap="round"/>
<path d="M189.446 197.765C206.997 208.565 262.349 207.188 275.175 197.737M179.995 224.735C183.293 224.735 207.657 232.16 232.648 232.16C258.82 232.16 282.239 225.414 283.275 225.414M188.771 252.415C213.811 256.868 226.239 257.664 252.899 255.111M263.699 253.761C269.517 253.39 271.629 253.053 275.175 252.415" stroke="black" stroke-width="3.07294" stroke-linecap="round"/>
<path d="M222.607 210.583C223.869 210.653 224.45 211.189 225.391 212.518L225.349 212.537C222.083 214.008 220.238 214.839 217.793 216.671C220.49 215.986 221.161 216.707 222.607 217.662C222.547 217.758 222.488 217.854 222.429 217.948C224.665 217.605 226.996 217.662 226.996 217.662C226.996 217.662 226.288 218.275 224.211 218.417C223.71 218.588 222.844 218.647 221.853 218.856C218.884 223.474 217.486 224.618 216.613 224.269C215.953 223.467 217.281 220.364 219.115 219.031C219.489 218.759 219.983 218.54 220.543 218.365C219.535 216.962 215.371 221.274 213.452 219.455C212.555 218.606 213.352 217.174 214.726 215.255C217.33 212.457 219.096 211.515 222.607 210.583Z" fill="white"/>
<path d="M228.079 207.891C227.567 208.327 227.655 208.787 227.23 209.92C225.783 210.057 225.323 210.187 224.634 210.439L227.041 210.722C227.041 210.722 225.199 217.66 225.248 218.367C225.442 221.159 225.861 225.258 227.655 225.116C229.165 224.833 229.542 223.875 230.675 221.529L229.542 219.311C229.171 220.57 228.923 221.068 228.41 222.143C227.419 221.246 228.008 217.353 230.675 210.722C233.402 210.645 234.793 210.779 237.093 211.241C237.217 210.903 237.228 210.721 236.905 210.439C234.764 210 233.388 209.897 230.675 209.92C230.799 208.85 230.177 208.419 228.079 207.891Z" fill="white"/>
<path d="M236.432 214.591C235.65 216.487 234.308 217.187 233.458 217.753C232.439 218.433 232.514 220.106 233.836 220.868C236.148 219.877 236.108 218.452 237.564 216.904L237.234 219.027C237.2 219.629 236.704 220.3 235.771 221.529C233.427 223.702 232.305 223.409 230.438 221.812C229.869 220.969 229.683 220.481 229.494 219.594C229.353 218.131 230.394 214.748 232.09 213.081C234.543 212.972 235.465 213.329 236.432 214.591Z" fill="white"/>
<path d="M240.963 212.277C240.192 211.582 238.469 210.755 238.084 211.05C237.339 213.861 237.252 215.877 237.188 219.592C238.084 222.612 238.934 223.461 240.35 223.933C242.396 222.672 243.242 221.685 243.323 218.601C245.502 221.279 246.489 222.558 249.835 226.34C250.267 225.3 250.874 224.405 250.874 223.933C246.862 220.347 247.145 217.185 244.927 217.185C247.086 212.327 248.18 210.516 249.835 209.681C249.904 209.081 249.91 208.765 249.127 208.737L240.963 219.969C239.594 219.214 241.734 212.972 240.963 212.277Z" fill="white"/>
<path d="M389.37 72.5576C367.732 84.675 317.531 82.9439 295.028 74.2887C295.028 74.2887 292.431 83.8095 294.162 87.2716C295.893 90.7337 309.742 95.0613 309.742 95.0613C317.324 111.226 317.125 120.566 313.204 137.472C300.493 151.378 293.513 159.149 282.045 172.959C273.634 191.883 272.402 202.648 275.986 222.294C282.938 239.286 288.04 247.087 295.893 259.511C339.121 267.612 357.849 264.775 391.101 259.511L409.277 222.294C412.299 194.313 409.499 185.895 403.218 172.959C391.197 157.83 384.201 150.001 371.194 137.472C367.059 120.674 368.53 111.577 376.387 95.9268C379.836 91.4906 383.116 90.1625 389.37 88.1371V72.5576Z" fill="#38B2CE"/>
<path d="M296.759 88.1379C295.064 83.3945 294.965 80.7639 296.759 76.0205L306.28 77.7516V89.8689V91.6L319.263 96.7931C324.456 102.852 326.187 122.759 324.456 134.011C323.371 141.058 318.839 146.887 314.069 152.187C306.28 160.842 304.549 158.245 296.759 169.497C288.969 180.749 283.776 195.463 285.507 209.312C287.238 223.16 295.893 243.067 295.893 243.067L284.641 241.336C278.675 229.542 276.315 222.793 273.39 207.58C276.48 183.88 279.842 176.979 287.238 164.304C298.924 154.046 305.101 146.701 315.8 132.28C315.131 116.824 314.291 108.312 309.742 94.1966L296.759 88.1379Z" fill="#ADE2FF" fill-opacity="0.57"/>
<path d="M388.505 69.9602C377.253 60.4376 310.607 56.1121 295.893 72.5568C308.32 79.2277 319.026 81.2053 346.094 81.2121C377.501 80.098 384.124 77.0488 388.505 69.9602Z" fill="#5B5B5B"/>
<path d="M400.622 241.341C369.873 247.856 344.019 247.893 286.372 243.072L295.028 260.382C330.456 266.758 352.261 265.238 391.967 260.382L400.622 241.341Z" fill="#015367"/>
<path d="M390.236 260.382C354.4 265.003 334.302 267.55 295.893 260.382V273.365C334.762 284.519 355.292 283.832 390.236 273.365V260.382Z" fill="#5B5B5B"/>
<path d="M398.891 169.502C354.612 185.085 329.786 183.749 285.507 169.502C276.955 181.981 274.729 190.022 275.12 206.72C326.811 215.809 356.029 217.828 409.277 206.72C411.818 191.396 409.639 183.103 398.891 169.502Z" fill="#04819E"/>
<path d="M387.639 68.2292C352.031 74.1079 327.918 70.8309 306.28 65.6377C277.717 78.6206 323.62 81.0368 344.363 82.0776C379.392 79.2068 387.639 75.1534 387.639 68.2292Z" fill="#677673"/>
<path d="M391.101 259.516V273.364C362.539 284.616 327.918 284.616 295.028 273.364V259.516M391.101 259.516C354.248 266.49 333.31 267.524 295.028 259.516M391.101 259.516C421.495 205.721 416.373 180.278 375.522 141.805C371.194 137.729 369.463 134.02 368.598 121.897C367.732 109.775 378.118 93.3299 378.118 93.3299M295.028 259.516C263.953 207.796 266.841 181.881 311.473 141.805C315.334 138.337 316.372 129.926 316.666 121.897C317.121 109.505 310.607 95.061 310.607 95.061M310.607 95.061C310.607 95.061 298.1 91.604 295.028 88.1419C290.99 83.591 295.028 72.5624 295.028 72.5624M310.607 95.061C320.684 97.0859 340.901 99.3886 350.422 98.5231M295.028 72.5624C295.028 72.5624 303.683 61.3154 342.632 61.3105C381.58 61.3057 388.505 69.9658 388.505 69.9658M295.028 72.5624C307.145 84.6747 388.505 84.6747 388.505 69.9658M388.505 69.9658C388.505 69.9658 392.135 84.3508 386.774 89.0023C383.609 91.7474 378.118 93.3299 378.118 93.3299M362.539 96.792C366.001 96.792 373.791 95.0661 378.118 93.3299" stroke="black" stroke-width="2.36408" stroke-linecap="round"/>
<path d="M288.104 171.232C310.607 185.08 381.581 183.314 398.026 171.196M275.986 205.812C280.214 205.812 311.454 215.333 343.497 215.333C377.056 215.333 407.084 206.683 408.412 206.683M287.238 241.304C319.345 247.014 335.28 248.034 369.463 244.761M383.312 243.03C390.771 242.555 393.479 242.123 398.026 241.304" stroke="black" stroke-width="3.94014" stroke-linecap="round"/>
<path d="M330.623 187.663C332.241 187.753 332.987 188.44 334.193 190.144L334.139 190.169C329.951 192.055 327.586 193.12 324.451 195.469C327.909 194.591 328.769 195.515 330.623 196.74C330.546 196.863 330.47 196.986 330.395 197.106C333.262 196.667 336.251 196.74 336.251 196.74C336.251 196.74 335.343 197.526 332.68 197.708C332.038 197.927 330.927 198.003 329.656 198.271C325.85 204.191 324.057 205.659 322.938 205.211C322.091 204.183 323.795 200.204 326.145 198.495C326.625 198.146 327.259 197.866 327.977 197.641C326.684 195.843 321.345 201.372 318.884 199.039C317.735 197.95 318.756 196.114 320.518 193.654C323.857 190.066 326.122 188.858 330.623 187.663Z" fill="white"/>
<path d="M337.64 184.214C336.983 184.773 337.095 185.364 336.551 186.816C334.695 186.992 334.105 187.158 333.223 187.481L336.309 187.845C336.309 187.845 333.946 196.74 334.009 197.647C334.259 201.226 334.796 206.482 337.095 206.3C339.032 205.937 339.515 204.709 340.968 201.701L339.516 198.857C339.04 200.471 338.721 201.11 338.063 202.488C336.793 201.338 337.548 196.347 340.968 187.845C344.465 187.746 346.248 187.918 349.197 188.51C349.356 188.077 349.37 187.843 348.955 187.481C346.211 186.919 344.446 186.787 340.968 186.816C341.127 185.444 340.33 184.891 337.64 184.214Z" fill="white"/>
<path d="M348.35 192.805C347.348 195.236 345.627 196.133 344.538 196.859C343.23 197.731 343.327 199.877 345.022 200.853C347.987 199.582 347.935 197.755 349.802 195.77L349.378 198.493C349.335 199.265 348.7 200.124 347.503 201.7C344.498 204.487 343.058 204.111 340.665 202.063C339.935 200.982 339.697 200.356 339.455 199.219C339.273 197.343 340.608 193.007 342.783 190.869C345.929 190.728 347.111 191.186 348.35 192.805Z" fill="white"/>
<path d="M354.159 189.84C353.17 188.949 350.96 187.889 350.468 188.267C349.512 191.871 349.401 194.457 349.318 199.219C350.468 203.092 351.557 204.181 353.372 204.786C355.996 203.169 357.08 201.904 357.184 197.949C359.979 201.382 361.245 203.022 365.535 207.872C366.088 206.539 366.866 205.391 366.866 204.786C361.723 200.187 362.086 196.133 359.242 196.133C362.01 189.904 363.413 187.583 365.535 186.512C365.623 185.742 365.631 185.338 364.627 185.302L354.159 199.703C352.404 198.735 355.147 190.731 354.159 189.84Z" fill="white"/>
</svg>
